<svg width="27" height="28" viewBox="0 0 27 28" fill="none" xmlns="http://www.w3.org/2000/svg">
<path d="M0.399431 20.0633C0.481497 19.9562 0.562078 19.8491 0.641178 19.7457C1.7288 18.3201 2.38682 17.4598 2.38682 13.4242C2.38682 11.3349 2.84807 9.62066 3.75722 8.33495C4.42759 7.38513 5.33378 6.66459 6.52819 6.13209C6.54356 6.12283 6.55729 6.11067 6.56873 6.0962C6.99834 4.53727 8.17397 3.49316 9.49988 3.49316C10.8258 3.49316 12.0009 4.53727 12.4305 6.09459C12.442 6.10854 12.4555 6.1203 12.4706 6.12941C15.2579 7.37281 16.6124 9.75834 16.6124 13.4226C16.6124 17.4598 17.2695 18.3201 18.3581 19.7441C18.4372 19.8475 18.5178 19.9524 18.5998 20.0617C18.8118 20.3388 18.9461 20.6758 18.9869 21.033C19.0276 21.3901 18.9731 21.7525 18.8297 22.0771C18.5247 22.7735 17.8746 23.2058 17.1325 23.2058H1.86179C1.12319 23.2058 0.477541 22.7741 0.171522 22.0808C0.0275459 21.7561 -0.0275078 21.3935 0.0128841 21.0359C0.053278 20.6784 0.187428 20.3408 0.399431 20.0633ZM9.49988 27.4932C8.78549 27.4925 8.08457 27.2824 7.47148 26.885C6.85838 26.4877 6.35596 25.9179 6.0175 25.2362C6.00156 25.2035 5.99368 25.1669 5.99464 25.13C5.9956 25.0931 6.00536 25.057 6.02297 25.0254C6.04059 24.9937 6.06546 24.9675 6.09516 24.9494C6.12487 24.9312 6.15841 24.9217 6.19251 24.9217H12.8063C12.8404 24.9216 12.874 24.9311 12.9038 24.9492C12.9336 24.9673 12.9585 24.9935 12.9762 25.0251C12.9938 25.0568 13.0036 25.0929 13.0046 25.1299C13.0056 25.1669 12.9977 25.2035 12.9818 25.2362C12.6433 25.9179 12.141 26.4876 11.528 26.8849C10.915 27.2823 10.2142 27.4924 9.49988 27.4932Z" fill="#3B3B3B"/>
<circle cx="18" cy="9.50684" r="9" fill="#EE1919"/>
<path d="M17.2062 13.8513V7.60532L15.3102 8.27732L14.7882 6.72332L18.8982 5.27132H19.0302V13.8513H17.2062Z" fill="white"/>
</svg>
