<svg width="27" height="22" viewBox="0 0 27 22" fill="none" xmlns="http://www.w3.org/2000/svg">
<path d="M24.8684 17.801C25.4158 17.8012 25.9422 17.9845 26.3383 18.3129C26.7345 18.6413 26.9702 19.0895 26.9965 19.5648C27.0228 20.0402 26.8377 20.506 26.4796 20.866C26.1216 21.2259 25.6179 21.4523 25.0731 21.4982L24.8684 21.5068H2.13158C1.58417 21.5066 1.05784 21.3233 0.661661 20.9949C0.265483 20.6665 0.029825 20.2182 0.00351816 19.7429C-0.0227887 19.2676 0.162273 18.8018 0.520355 18.4418C0.878437 18.0819 1.38209 17.8555 1.92695 17.8096L2.13158 17.801H24.8684ZM24.8684 9.15389C25.4338 9.15389 25.9759 9.34912 26.3757 9.69661C26.7754 10.0441 27 10.5154 27 11.0068C27 11.4983 26.7754 11.9696 26.3757 12.3171C25.9759 12.6646 25.4338 12.8598 24.8684 12.8598H2.13158C1.56625 12.8598 1.02407 12.6646 0.624325 12.3171C0.224577 11.9696 0 11.4983 0 11.0068C0 10.5154 0.224577 10.0441 0.624325 9.69661C1.02407 9.34912 1.56625 9.15389 2.13158 9.15389H24.8684ZM24.8684 0.506836C25.4338 0.506836 25.9759 0.702056 26.3757 1.04955C26.7754 1.39704 27 1.86835 27 2.35978C27 2.85121 26.7754 3.32251 26.3757 3.67C25.9759 4.0175 25.4338 4.21272 24.8684 4.21272H2.13158C1.56625 4.21272 1.02407 4.0175 0.624325 3.67C0.224577 3.32251 0 2.85121 0 2.35978C0 1.86835 0.224577 1.39704 0.624325 1.04955C1.02407 0.702056 1.56625 0.506836 2.13158 0.506836H24.8684Z" fill="#3B3B3B"/>
</svg>
